<svg version="1.1" xmlns="http://www.w3.org/2000/svg" viewBox="0 0 718.4193115234375 451.2489318847656" width="1436.838623046875" height="902.4978637695312">
  <!-- svg-source:excalidraw -->

  <defs>
    <style>
      @font-face {
        font-family: "Virgil";
        src: url("https://excalidraw.com/Virgil.woff2");
      }
      @font-face {
        font-family: "Cascadia";
        src: url("https://excalidraw.com/Cascadia.woff2");
      }
    </style>
  </defs>
  <rect x="0" y="0" width="718.4193115234375" height="451.2489318847656" fill="#ffffff"></rect><g stroke-linecap="round" transform="translate(326.3326110839846 14.3896484375) rotate(0 87.9390869140625 40.3660888671875)"><path d="M-3.54 -3.79 C60.17 -1.48, 126.49 3.45, 179.29 0.61 M-0.88 -0.17 C42.44 -0.17, 83.48 1.99, 174.51 -0.09 M174.09 2.44 C178.96 30.1, 179.44 57.58, 174.46 80.55 M175.1 -1.08 C177.06 19.73, 174.36 40.61, 177.46 81.77 M172.15 82.8 C128.49 78.75, 80.02 81.89, 1.34 78.8 M177.63 81.46 C125.56 78.96, 78.41 82.86, -0.14 79.53 M-2.44 78.63 C-1.86 55.53, -1.11 33.44, 3.28 -1.74 M0.78 81.85 C-2.55 54.4, -0.01 27.32, 1.34 0.93" stroke="#000000" stroke-width="1" fill="none"></path></g><g transform="translate(335.7716979980471 39.662628173828125) rotate(0 78.5 12.5)"><text x="78.5" y="18" font-family="Virgil, Segoe UI Emoji" font-size="20px" fill="#000000" text-anchor="middle" style="white-space: pre;" direction="ltr">composition-root</text></g><g stroke-linecap="round" transform="translate(10 10) rotate(0 87.9390869140625 40.3660888671875)"><path d="M-1.8 1.72 C39.5 3.43, 69.8 -0.91, 174.73 -1.76 M-1.15 0.98 C49.87 1.99, 103.6 3.57, 175 -0.89 M178.23 -0.03 C175.22 28.96, 175.19 58.17, 177.66 79.18 M174.41 -1.97 C178.44 20.91, 176.27 38.61, 176.27 78.87 M175.04 81.21 C115.38 76.46, 51.37 77.31, 0.17 84.24 M176.58 82.71 C116.58 76.15, 56.94 76.03, -1.95 79.51 M-2.17 76.99 C4.46 59.02, 2.13 43.4, 0.91 1.56 M1.05 79.61 C2.55 52.91, 0.59 23.37, -0.93 1.4" stroke="#000000" stroke-width="1" fill="none"></path></g><g transform="translate(68.9390869140625 35.272979736328125) rotate(0 29 12.5)"><text x="29" y="18" font-family="Virgil, Segoe UI Emoji" font-size="20px" fill="#000000" text-anchor="middle" style="white-space: pre;" direction="ltr">/index</text></g><g stroke-linecap="round" transform="translate(326.3326110839846 360.5167541503906) rotate(0 87.9390869140625 40.3660888671875)"><path d="M-2.38 -3.73 C59.19 -2.29, 120.33 -0.29, 173.52 -2.29 M1.14 1.49 C60.51 -0.74, 123.99 1.09, 176.53 1.18 M174.43 -0.11 C177.09 22.61, 173.16 50.78, 172.76 77.79 M175.28 -1.15 C177.54 14.38, 178.18 32.56, 174.54 80.31 M175.04 79.65 C121.2 82.55, 67.64 76.58, -3.84 82.15 M175.27 79.41 C103.75 77.4, 34.46 77.16, -1.71 79.64 M0.95 83.35 C-0.42 65.63, 0.92 44.42, -0.38 2.1 M-0.61 80.86 C-2.01 62.46, -0.22 41.06, -1.42 -0.82" stroke="#000000" stroke-width="1" fill="none"></path></g><g transform="translate(351.2716979980471 385.78973388671875) rotate(0 63 12.5)"><text x="63" y="18" font-family="Virgil, Segoe UI Emoji" font-size="20px" fill="#000000" text-anchor="middle" style="white-space: pre;" direction="ltr">abstractions</text></g><g stroke-linecap="round"><g transform="translate(195.42110102647484 99.36036561885071) rotate(0 90.2701894187743 127.50078986908697)"><path d="M-1.23 -0.24 C29.5 42.41, 151.57 212.05, 181.77 255.11 M3.3 -2.84 C33.91 40.21, 150.62 215.15, 179.63 257.85" stroke="#000000" stroke-width="1" fill="none"></path></g><g transform="translate(195.42110102647484 99.36036561885071) rotate(0 90.2701894187743 127.50078986908697)"><path d="M155.02 240.43 C157.93 241.76, 167.27 244.98, 179.45 260.12 M156.59 241.13 C164.95 248.19, 173.37 252.92, 179.54 257.12" stroke="#000000" stroke-width="1" fill="none"></path></g><g transform="translate(195.42110102647484 99.36036561885071) rotate(0 90.2701894187743 127.50078986908697)"><path d="M172.05 228.97 C171.36 232.53, 177.18 238.11, 179.45 260.12 M173.62 229.67 C175.5 240.87, 177.54 249.89, 179.54 257.12" stroke="#000000" stroke-width="1" fill="none"></path></g></g><g stroke-linecap="round"><g transform="translate(388.4751257177859 99.11102294921875) rotate(0 21.266234545186535 126.51984940320253)"><path d="M0.17 -1.65 C7.07 40.84, 33.56 212.22, 40.18 254.69 M-3.18 3.62 C4.75 45.3, 37.57 208.32, 45.71 250.43" stroke="#000000" stroke-width="1" fill="none"></path></g><g transform="translate(388.4751257177859 99.11102294921875) rotate(0 21.266234545186535 126.51984940320253)"><path d="M27.82 222.47 C36.07 228.59, 37.92 240.16, 48.69 248.67 M30.83 225.94 C34.45 230.46, 38.34 237, 45.66 251.32" stroke="#000000" stroke-width="1" fill="none"></path></g><g transform="translate(388.4751257177859 99.11102294921875) rotate(0 21.266234545186535 126.51984940320253)"><path d="M47.95 218.49 C51.04 225.65, 47.73 238.24, 48.69 248.67 M50.96 221.96 C49.49 227.69, 48.23 235.24, 45.66 251.32" stroke="#000000" stroke-width="1" fill="none"></path></g></g><g stroke-linecap="round" transform="translate(532.5411376953125 188.0378875732422) rotate(0 87.9390869140625 40.3660888671875)"><path d="M1.96 -2.73 C53.66 4.29, 110.66 0.26, 174.09 2.44 M-0.01 -0.71 C60.93 -2.8, 121.98 -1.18, 175.1 -1.08 M171.93 3.16 C176.69 27.96, 172.33 59.1, 172.15 82.8 M176.11 0.67 C173.84 24.05, 174.26 49.02, 177.63 81.46 M179.84 80.46 C131.52 80.76, 89.32 78.08, -2.44 78.63 M174.01 82.37 C135.11 79.3, 97.39 79.27, 0.78 81.85 M-2.25 83.41 C2.01 61.33, 0.42 42.51, 2.8 1.71 M0.15 81.38 C1.52 58.43, 2.75 33.51, -1.42 0.39" stroke="#000000" stroke-width="1" fill="none"></path></g><g transform="translate(545.980224609375 213.3108673095703) rotate(0 74.5 12.5)"><text x="74.5" y="18" font-family="Virgil, Segoe UI Emoji" font-size="20px" fill="#000000" text-anchor="middle" style="white-space: pre;" direction="ltr">implementations</text></g><g stroke-linecap="round"><g transform="translate(475.74409638791917 99.0144574371493) rotate(0 68.40624168099941 38.04645178985289)"><path d="M1.59 2.08 C24.88 14.17, 114.61 60.25, 137.8 72.39 M-0.99 0.75 C21.98 13.21, 111.42 63.78, 134.9 75.35" stroke="#000000" stroke-width="1" fill="none"></path></g><g transform="translate(475.74409638791917 99.0144574371493) rotate(0 68.40624168099941 38.04645178985289)"><path d="M108.17 69.38 C110.29 74.21, 120.84 74.05, 137.26 75.32 M105.14 72.02 C112.28 71.39, 122.14 72.02, 133.43 73.37" stroke="#000000" stroke-width="1" fill="none"></path></g><g transform="translate(475.74409638791917 99.0144574371493) rotate(0 68.40624168099941 38.04645178985289)"><path d="M117.83 51.27 C117.69 60.41, 126 64.45, 137.26 75.32 M114.8 53.92 C119.36 58, 126.67 63.43, 133.43 73.37" stroke="#000000" stroke-width="1" fill="none"></path></g></g><g stroke-linecap="round"><g transform="translate(198.37127685546875 53.581404037708836) rotate(0 60.13927180022 1.4965708530694215)"><path d="M-1.23 -1.25 C18.76 -1.05, 101.18 2.49, 121.51 3.3 M3.3 4.24 C22.92 3.42, 100.85 -0.12, 120.2 -1" stroke="#000000" stroke-width="1" fill="none"></path></g><g transform="translate(198.37127685546875 53.581404037708836) rotate(0 60.13927180022 1.4965708530694215)"><path d="M90.71 12.97 C104.09 7.96, 114.45 2.52, 118.78 -1.18 M91.72 9.45 C101.03 5.68, 105.65 2.23, 121.77 0.04" stroke="#000000" stroke-width="1" fill="none"></path></g><g transform="translate(198.37127685546875 53.581404037708836) rotate(0 60.13927180022 1.4965708530694215)"><path d="M89.78 -7.53 C103.79 -5.22, 114.49 -3.34, 118.78 -1.18 M90.79 -11.05 C100.34 -9.42, 105.2 -7.47, 121.77 0.04" stroke="#000000" stroke-width="1" fill="none"></path></g></g><g stroke-linecap="round" transform="translate(67.88916015625 188.0378875732422) rotate(0 87.9390869140625 40.3660888671875)"><path d="M1.88 1.3 C47.4 -2.17, 88.68 -2.33, 174.43 -0.11 M1.22 -1.56 C59.11 -0.08, 122.75 2.93, 175.28 -1.15 M176 -2.67 C173.54 26.27, 175.72 49.67, 175.04 79.65 M174.65 -1.92 C178 26.55, 177.16 47.93, 175.27 79.41 M172.95 77.31 C138.05 75.14, 107.86 77.15, 0.95 83.35 M174.38 80.54 C120.18 81.58, 63.73 83.64, -0.61 80.86 M-0.65 77.89 C-2.78 60.58, 0.16 40.55, 1.2 3.2 M-0.87 82.1 C2.1 63.88, 1.47 45.06, 0.88 -0.23" stroke="#000000" stroke-width="1" fill="none"></path></g><g transform="translate(101.8282470703125 213.3108673095703) rotate(0 54 12.5)"><text x="54" y="18" font-family="Virgil, Segoe UI Emoji" font-size="20px" fill="#000000" text-anchor="middle" style="white-space: pre;" direction="ltr">components</text></g><g stroke-linecap="round"><g transform="translate(602.5241954466219 280.50849787732585) rotate(0 -54.14147611701139 32.149281910885335)"><path d="M-0.02 -0.99 C-17.83 9.6, -88.31 53.81, -105.96 65.22 M-3.47 -4 C-21.75 6.84, -90.88 57.19, -108.27 68.29" stroke="#000000" stroke-width="1" fill="none"></path></g><g transform="translate(602.5241954466219 280.50849787732585) rotate(0 -54.14147611701139 32.149281910885335)"><path d="M-92.27 43.69 C-97.8 51.88, -100.36 58.55, -110.42 70.74 M-89.27 44.9 C-95.67 47.8, -98.55 52.51, -107.23 68.36" stroke="#000000" stroke-width="1" fill="none"></path></g><g transform="translate(602.5241954466219 280.50849787732585) rotate(0 -54.14147611701139 32.149281910885335)"><path d="M-80.64 60.59 C-90.24 63.16, -96.67 64.22, -110.42 70.74 M-77.64 61.81 C-86.38 60.72, -91.84 61.68, -107.23 68.36" stroke="#000000" stroke-width="1" fill="none"></path></g></g><g stroke-linecap="round"><g transform="translate(158.45095293387783 104.22367257614627) rotate(0 0.14555753564599172 35.95849589723166)"><path d="M-0.13 -1.01 C0.53 11.81, 3.42 63.58, 3.93 75.95 M-3.64 -4.03 C-3.36 8.03, 0.96 58.36, 1.65 71.62" stroke="#000000" stroke-width="1" fill="none"></path></g><g transform="translate(158.45095293387783 104.22367257614627) rotate(0 0.14555753564599172 35.95849589723166)"><path d="M-12.01 44.1 C-5.32 50.87, -5.59 63.08, -1.47 68.68 M-11.15 43.07 C-7.28 47.74, -4.18 55.18, 0.32 71.2" stroke="#000000" stroke-width="1" fill="none"></path></g><g transform="translate(158.45095293387783 104.22367257614627) rotate(0 0.14555753564599172 35.95849589723166)"><path d="M8.46 42.67 C9.02 49.85, 2.61 62.48, -1.47 68.68 M9.32 41.63 C9.1 46.8, 8.08 54.53, 0.32 71.2" stroke="#000000" stroke-width="1" fill="none"></path></g></g><g stroke-linecap="round"><g transform="translate(243.02282920410858 282.79093908391326) rotate(0 36.86404410520521 34.41432715562324)"><path d="M-0.08 1.25 C12.83 12.51, 63.93 55.79, 77.29 66.56 M-3.56 -0.55 C8.88 11.15, 60.67 57.98, 74.46 69.38" stroke="#000000" stroke-width="1" fill="none"></path></g><g transform="translate(243.02282920410858 282.79093908391326) rotate(0 36.86404410520521 34.41432715562324)"><path d="M48.24 57.05 C52.51 64.25, 59.81 62.05, 70.51 72.53 M46.85 56.74 C57.28 62.78, 64.76 66.09, 74.7 70.05" stroke="#000000" stroke-width="1" fill="none"></path></g><g transform="translate(243.02282920410858 282.79093908391326) rotate(0 36.86404410520521 34.41432715562324)"><path d="M61.71 41.57 C61.88 53.34, 65.21 55.71, 70.51 72.53 M60.32 41.27 C65.92 52.59, 68.67 61.34, 74.7 70.05" stroke="#000000" stroke-width="1" fill="none"></path></g></g><g stroke-linecap="round" transform="translate(28.739959716796875 360.5167541503906) rotate(0 87.9390869140625 40.3660888671875)"><path d="M-2.15 2.45 C49.16 -1.57, 100.61 4.52, 177.95 -1.19 M1.03 0.06 C41.35 2.86, 85.61 3.95, 174.91 -0.42 M177.33 -2.46 C172.1 23.46, 179.91 43.81, 173.48 79.52 M174.83 -1.46 C172.59 17.8, 172.43 39.42, 175.01 81.21 M178.12 77.74 C111.21 84.2, 45.05 84.78, 1.86 79.5 M176.73 80.41 C120.53 82.37, 68.18 83.84, 0.37 81.33 M0.78 79 C3.88 51.96, 4.4 20.03, 2.59 1.76 M1.37 79.41 C1.4 56.94, 0.36 32.65, 1.9 0.25" stroke="#000000" stroke-width="1" fill="none"></path></g><g transform="translate(89.17904663085938 385.78973388671875) rotate(0 27.5 12.5)"><text x="27.5" y="18" font-family="Virgil, Segoe UI Emoji" font-size="20px" fill="#000000" text-anchor="middle" style="white-space: pre;" direction="ltr">react</text></g><g stroke-linecap="round"><g transform="translate(43.6501232777689 98.02835083007814) rotate(0 1.600800089405368 124.95588475018741)"><path d="M-2.06 -2.76 C-1.47 39.71, 4.55 210.61, 5.26 252.68 M2.02 1.91 C2.28 43.75, 4.57 206.79, 4.22 248.45" stroke="#000000" stroke-width="1" fill="none"></path></g><g transform="translate(43.6501232777689 98.02835083007814) rotate(0 1.600800089405368 124.95588475018741)"><path d="M-10.11 223.46 C-0.78 229.43, -1.39 241.57, 0.49 250.52 M-5.92 220.98 C-4.35 228.46, -0.78 237.5, 5.98 249.18" stroke="#000000" stroke-width="1" fill="none"></path></g><g transform="translate(43.6501232777689 98.02835083007814) rotate(0 1.600800089405368 124.95588475018741)"><path d="M10.41 223.38 C12.33 229.07, 4.3 241.25, 0.49 250.52 M14.6 220.89 C9.95 228.31, 7.3 237.37, 5.98 249.18" stroke="#000000" stroke-width="1" fill="none"></path></g></g><g stroke-linecap="round"><g transform="translate(130.95498871252175 274.8466796875) rotate(0 -4.52426908805711 37.44638684019445)"><path d="M2.21 1.45 C1.12 13.97, -7 60.71, -8.57 72.37 M-0.04 -0.23 C-1.38 12.88, -9.82 62.91, -11.26 75.12" stroke="#000000" stroke-width="1" fill="none"></path></g><g transform="translate(130.95498871252175 274.8466796875) rotate(0 -4.52426908805711 37.44638684019445)"><path d="M-15.26 44.55 C-18.83 53.09, -18.89 61.02, -11.14 72.46 M-18.3 45.33 C-16.11 53.99, -12.12 62.83, -12.49 73.2" stroke="#000000" stroke-width="1" fill="none"></path></g><g transform="translate(130.95498871252175 274.8466796875) rotate(0 -4.52426908805711 37.44638684019445)"><path d="M5.05 47.52 C-3.06 55.7, -7.72 62.97, -11.14 72.46 M2.01 48.3 C-1.47 56.27, -3.15 64.28, -12.49 73.2" stroke="#000000" stroke-width="1" fill="none"></path></g></g></svg>
